<?xml version="1.0" encoding="UTF-8" standalone="no"?>
<!DOCTYPE svg PUBLIC "-//W3C//DTD SVG 1.1//EN" "http://www.w3.org/Graphics/SVG/1.1/DTD/svg11.dtd">
<svg width="100%" height="100%" viewBox="0 0 17 16" version="1.1" xmlns="http://www.w3.org/2000/svg" xmlns:xlink="http://www.w3.org/1999/xlink" xml:space="preserve" xmlns:serif="http://www.serif.com/" style="fill-rule:evenodd;clip-rule:evenodd;stroke-linejoin:round;stroke-miterlimit:2;">
    <g transform="matrix(0.32,0,0,0.32,-20.5493,-34.1282)">
        <g transform="matrix(1,0,0,1,63.7165,106.651)">
            <path d="M11.86,18.056C19.86,16.056 20.86,8.556 25.36,3.556C33.91,-5.944 47.18,5.556 41.86,15.056C38.362,21.302 53.36,21.556 50.36,38.056C47.36,54.556 28.86,49.056 25.36,42.556C21.86,36.056 16.36,41.556 5.86,38.056C-4.64,34.556 1.86,20.556 11.86,18.056Z" style="fill:rgb(244,244,244);fill-rule:nonzero;"/>
        </g>
        <g transform="matrix(1,0,0,1,63.7165,106.651)">
            <path d="M47.009,38.283C47.007,38.278 47.006,38.274 47.004,38.269L45.59,33.972L45.59,23.448C45.59,21.722 44.186,20.318 42.46,20.318L33.325,20.318L33.325,25.439C33.325,28.315 30.985,30.655 28.109,30.655L27.369,30.655L27.369,35.688C27.369,37.413 28.773,38.817 30.499,38.817L41.116,38.817L43.848,40.636C44.208,40.879 44.614,41 45.019,41C45.454,41 45.888,40.861 46.261,40.583C46.985,40.046 47.279,39.143 47.009,38.283ZM39.908,34.577C39.369,34.781 38.767,34.508 38.564,33.969L38.109,32.766L34.934,32.766L34.474,33.972C34.316,34.388 33.919,34.644 33.499,34.644C33.376,34.644 33.25,34.622 33.128,34.576C32.59,34.371 32.319,33.768 32.524,33.23L35.397,25.687C35.4,25.679 35.403,25.671 35.406,25.663C35.594,25.205 36.036,24.908 36.531,24.907C37.03,24.905 37.469,25.203 37.658,25.661C37.661,25.671 37.665,25.68 37.669,25.69L40.515,33.233C40.719,33.772 40.447,34.374 39.908,34.577Z" style="fill:rgb(240,168,128);fill-rule:nonzero;"/>
        </g>
        <g transform="matrix(1,0,0,1,63.7165,106.651)">
            <path d="M35.728,30.679L37.322,30.679L36.529,28.578L35.728,30.679Z" style="fill:rgb(240,168,128);fill-rule:nonzero;"/>
        </g>
        <g transform="matrix(1,0,0,1,63.7165,106.651)">
            <path d="M28.109,10L16.147,10C14.422,10 13.018,11.404 13.018,13.13L13.018,23.723L11.603,28.021C11.602,28.026 11.6,28.031 11.599,28.035C11.329,28.895 11.623,29.798 12.346,30.335C12.72,30.612 13.154,30.751 13.588,30.751C13.994,30.751 14.4,30.63 14.759,30.387L17.492,28.569L28.109,28.569C29.834,28.569 31.238,27.165 31.238,25.439L31.238,13.13C31.238,11.404 29.834,10 28.109,10ZM26.482,23.919C26.278,24.122 26.011,24.224 25.744,24.224C25.477,24.224 25.21,24.122 25.007,23.919L24.55,23.462C23.785,23.962 22.872,24.255 21.892,24.255C19.209,24.255 17.026,22.072 17.026,19.389C17.026,16.705 19.209,14.522 21.892,14.522C24.575,14.522 26.758,16.705 26.758,19.389C26.758,20.338 26.484,21.224 26.012,21.973L26.482,22.443C26.889,22.851 26.889,23.511 26.482,23.919Z" style="fill:rgb(240,168,128);fill-rule:nonzero;"/>
        </g>
        <g transform="matrix(1,0,0,1,63.7165,106.651)">
            <path d="M21.892,16.609C20.359,16.609 19.112,17.856 19.112,19.389C19.112,20.922 20.359,22.169 21.892,22.169C22.292,22.169 22.673,22.083 23.018,21.93L22.561,21.473C22.153,21.065 22.153,20.405 22.561,19.997C22.968,19.59 23.629,19.59 24.036,19.997L24.469,20.43C24.599,20.108 24.672,19.757 24.672,19.389C24.672,17.856 23.425,16.609 21.892,16.609Z" style="fill:rgb(240,168,128);fill-rule:nonzero;"/>
        </g>
    </g>
</svg>
