<?xml version="1.0" encoding="UTF-8" standalone="no"?>
<!DOCTYPE svg PUBLIC "-//W3C//DTD SVG 1.1//EN" "http://www.w3.org/Graphics/SVG/1.1/DTD/svg11.dtd">
<svg width="100%" height="100%" viewBox="0 0 51 49" version="1.1" xmlns="http://www.w3.org/2000/svg" xmlns:xlink="http://www.w3.org/1999/xlink" xml:space="preserve" xmlns:serif="http://www.serif.com/" style="fill-rule:evenodd;clip-rule:evenodd;stroke-linejoin:round;stroke-miterlimit:2;">
    <g transform="matrix(1,0,0,1,-599.164,-1001.33)">
        <g transform="matrix(1,0,0,1,598.664,1001.33)">
            <path d="M11.86,18.056C19.86,16.056 20.86,8.556 25.36,3.556C33.91,-5.944 47.18,5.556 41.86,15.056C38.362,21.302 53.36,21.556 50.36,38.056C47.36,54.556 28.86,49.056 25.36,42.556C21.86,36.056 16.36,41.556 5.86,38.056C-4.64,34.556 1.86,20.556 11.86,18.056Z" style="fill:rgb(244,244,244);fill-rule:nonzero;"/>
        </g>
        <g transform="matrix(1,0,0,1,598.664,1001.33)">
            <path d="M40.141,33.688L32.922,33.688C30.932,33.688 29.313,35.306 29.313,37.297L29.313,39.266C29.313,39.809 29.754,40.25 30.298,40.25L42.766,40.25C43.309,40.25 43.75,39.809 43.75,39.266L43.75,37.297C43.75,35.306 42.132,33.688 40.141,33.688Z" style="fill:rgb(77,77,77);fill-rule:nonzero;"/>
        </g>
        <g transform="matrix(1,0,0,1,598.664,1001.33)">
            <path d="M23.078,33.688L15.859,33.688C13.868,33.688 12.25,35.306 12.25,37.297L12.25,39.266C12.25,39.809 12.691,40.25 13.234,40.25L25.703,40.25C26.246,40.25 26.687,39.809 26.687,39.266L26.687,37.297C26.687,35.306 25.069,33.688 23.078,33.688Z" style="fill:rgb(77,77,77);fill-rule:nonzero;"/>
        </g>
        <g transform="matrix(1,0,0,1,598.664,1001.33)">
            <path d="M36.531,31.062C38.705,31.062 40.468,29.299 40.468,27.124C40.468,24.95 38.705,23.187 36.531,23.187C34.356,23.187 32.593,24.95 32.593,27.124C32.593,29.299 34.356,31.062 36.531,31.062Z" style="fill:rgb(77,77,77);fill-rule:nonzero;"/>
        </g>
        <g transform="matrix(1,0,0,1,598.664,1001.33)">
            <path d="M19.47,31.062C21.644,31.062 23.407,29.299 23.407,27.124C23.407,24.95 21.644,23.187 19.47,23.187C17.295,23.187 15.532,24.95 15.532,27.124C15.532,29.299 17.295,31.062 19.47,31.062Z" style="fill:rgb(77,77,77);fill-rule:nonzero;"/>
        </g>
        <g transform="matrix(1,0,0,1,598.664,1001.33)">
            <path d="M30.677,22.1L30.677,23.045C30.677,23.846 30.022,24.502 29.207,24.502L26.791,24.502C26.082,24.502 25.321,23.976 25.321,22.809L25.321,22.1L30.677,22.1Z" style="fill:rgb(240,168,128);fill-rule:nonzero;"/>
        </g>
        <g transform="matrix(1,0,0,1,598.664,1001.33)">
            <path d="M33.906,14.619C33.906,16.391 33.119,18.044 31.741,19.161C31.189,19.608 30.835,20.184 30.717,20.789L25.297,20.789C25.204,20.198 24.878,19.647 24.338,19.228C22.881,18.086 22.054,16.367 22.094,14.503C22.159,11.378 24.771,8.793 27.908,8.754C29.496,8.714 31.018,9.331 32.16,10.461C33.29,11.561 33.906,13.044 33.906,14.619Z" style="fill:rgb(240,168,128);fill-rule:nonzero;"/>
        </g>
    </g>
</svg>
