<?xml version="1.0" encoding="UTF-8" standalone="no"?>
<!DOCTYPE svg PUBLIC "-//W3C//DTD SVG 1.1//EN" "http://www.w3.org/Graphics/SVG/1.1/DTD/svg11.dtd">
<svg width="100%" height="100%" viewBox="0 0 17 16" version="1.1" xmlns="http://www.w3.org/2000/svg" xmlns:xlink="http://www.w3.org/1999/xlink" xml:space="preserve" xmlns:serif="http://www.serif.com/" style="fill-rule:evenodd;clip-rule:evenodd;stroke-linejoin:round;stroke-miterlimit:2;">
    <g transform="matrix(0.32,0,0,0.32,-29.1893,-29.6482)">
        <g transform="matrix(1,0,0,1,90.7165,92.6505)">
            <path d="M11.86,18.056C19.86,16.056 20.86,8.556 25.36,3.556C33.91,-5.944 47.18,5.556 41.86,15.056C38.362,21.302 53.36,21.556 50.36,38.056C47.36,54.556 28.86,49.056 25.36,42.556C21.86,36.056 16.36,41.556 5.86,38.056C-4.64,34.556 1.86,20.556 11.86,18.056Z" style="fill:rgb(244,244,244);fill-rule:nonzero;"/>
        </g>
        <g transform="matrix(1,0,0,1,90.7165,92.6505)">
            <path d="M13.636,25.023C13.283,25.029 13,25.318 13,25.67L13,37.615C13,37.793 13.145,37.939 13.324,37.939L16.387,37.939C16.675,37.939 16.929,37.747 17.009,37.47L19.866,27.397C20.051,26.746 19.702,26.062 19.066,25.831C17.896,25.403 16.1,24.983 13.636,25.023Z" style="fill:rgb(77,77,77);fill-rule:nonzero;"/>
        </g>
        <g transform="matrix(1,0,0,1,90.7165,92.6505)">
            <path d="M41.417,32.126C38.835,32.126 33.667,35.396 31.085,35.396C28.502,35.396 25.594,33.416 25.594,33.416C25.594,33.416 29.074,34.062 31.083,34.062C33.092,34.062 33.666,33.376 33.666,32.447C33.666,30.186 29.826,29.836 27.884,29.541C25.978,28.48 24.988,27.641 21.829,27.373C21.81,27.557 21.781,27.739 21.731,27.924L19.136,37.069C22.076,38.405 27.134,40.523 29.791,40.523C33.666,40.523 43.998,35.356 43.998,34.065C43.998,32.775 42.708,32.126 41.417,32.126Z" style="fill:rgb(77,77,77);fill-rule:nonzero;"/>
        </g>
        <g transform="matrix(1,0,0,1,90.7165,92.6505)">
            <path d="M42.603,10.399C42.491,10.039 42.119,9.767 41.743,9.717C39.457,9.415 36.324,9.004 33.816,11.259C32.15,12.761 31.929,15.283 33.222,17.066C32.024,18.294 31.265,19.565 30.786,20.683C30.298,19.664 29.725,18.751 29.151,17.967C29.409,17.329 29.544,16.628 29.537,15.888C29.521,14.394 28.917,12.929 27.919,11.972C24.861,9.031 21.027,9.417 17.946,9.727L17.788,9.742C17.412,9.781 17.092,10.033 16.968,10.389C16.846,10.746 16.941,11.143 17.212,11.404C18.592,12.73 18.873,14.138 19.171,15.628C19.436,16.953 19.709,18.325 20.828,19.401C21.885,20.418 23.282,20.929 24.646,20.929C25.875,20.929 27.068,20.501 27.973,19.666C28.837,20.951 29.647,22.537 29.974,24.302C29.982,24.343 30.005,24.376 30.017,24.415C30.033,24.461 30.046,24.504 30.067,24.547C30.102,24.616 30.145,24.678 30.195,24.736C30.221,24.767 30.242,24.798 30.271,24.826C30.337,24.888 30.412,24.936 30.494,24.977C30.517,24.988 30.536,25.006 30.561,25.015C30.676,25.062 30.798,25.095 30.926,25.095C30.984,25.095 31.044,25.089 31.104,25.079C31.147,25.072 31.178,25.046 31.218,25.033C31.271,25.015 31.317,24.998 31.366,24.975C31.431,24.942 31.49,24.901 31.544,24.855C31.583,24.822 31.617,24.787 31.652,24.748C31.699,24.694 31.736,24.64 31.77,24.576C31.798,24.527 31.819,24.477 31.836,24.424C31.858,24.36 31.869,24.299 31.877,24.233C31.881,24.198 31.898,24.169 31.898,24.132C31.9,23.981 31.978,21.022 34.741,18.283C35.153,18.453 35.605,18.567 36.087,18.596C36.178,18.602 36.269,18.606 36.36,18.606C37.488,18.606 38.608,18.193 39.404,17.479C40.346,16.63 40.6,15.547 40.844,14.501C41.101,13.394 41.346,12.352 42.39,11.412C42.669,11.16 42.715,10.759 42.603,10.399Z" style="fill:rgb(240,168,128);fill-rule:nonzero;"/>
        </g>
    </g>
</svg>
